HIERARCHY
ROOT Hips
{
	OFFSET	0.00	0.00	0.00
	CHANNELS 6 Xposition Yposition Zposition Zrotation Xrotation Yrotation
	JOINT LeftUpLeg
	{
		OFFSET	 0.126116	-0.065224	 0.014019
		CHANNELS 3 Zrotation Xrotation Yrotation
		JOINT LeftLeg
		{
			OFFSET	 0.000000	 0.569914	 0.000000
			CHANNELS 3 Zrotation Xrotation Yrotation
			JOINT LeftFoot
			{
				OFFSET	 0.000000	 0.544423	 0.000000
				CHANNELS 3 Zrotation Xrotation Yrotation
				JOINT LeftToeBase
				{
					OFFSET	 0.000000	 0.207117	 0.000000
					CHANNELS 3 Zrotation Xrotation Yrotation
					End Site
					{
						OFFSET	 0.000000	 0.207117	 0.000000
					}
				}
			}
		}
	}
	JOINT RightUpLeg
	{
		OFFSET	-0.124023	-0.065224	 0.008373
		CHANNELS 3 Zrotation Xrotation Yrotation
		JOINT RightLeg
		{
			OFFSET	 0.000000	 0.570047	 0.000000
			CHANNELS 3 Zrotation Xrotation Yrotation
			JOINT RightFoot
			{
				OFFSET	 0.000000	 0.544354	 0.000000
				CHANNELS 3 Zrotation Xrotation Yrotation
				JOINT RightToeBase
				{
					OFFSET	 0.000000	 0.207540	 0.000000
					CHANNELS 3 Zrotation Xrotation Yrotation
					End Site
					{
						OFFSET	 0.000000	 0.207540	 0.000000
					}
				}
			}
		}
	}
	JOINT Spine
	{
		OFFSET	 0.000184	 0.117403	 0.007763
		CHANNELS 3 Zrotation Xrotation Yrotation
		JOINT Spine1
		{
			OFFSET	 0.000000	 0.137269	 0.000000
			CHANNELS 3 Zrotation Xrotation Yrotation
			JOINT Spine2
			{
				OFFSET	 0.000000	 0.156879	 0.000000
				CHANNELS 3 Zrotation Xrotation Yrotation
				JOINT LeftShoulder
				{
					OFFSET	 0.080501	 0.160143	 0.002496
					CHANNELS 3 Zrotation Xrotation Yrotation
					JOINT LeftArm
					{
						OFFSET	 0.000000	 0.164363	 0.000000
						CHANNELS 3 Zrotation Xrotation Yrotation
						JOINT LeftForeArm
						{
							OFFSET	 0.000000	 0.364576	 0.000000
							CHANNELS 3 Zrotation Xrotation Yrotation
							JOINT LeftHand
							{
								OFFSET	 0.000000	 0.360812	 0.000000
								CHANNELS 3 Zrotation Xrotation Yrotation
								JOINT LeftHandIndex1
								{
									OFFSET	 0.000000	 0.086006	 0.000000
									CHANNELS 3 Zrotation Xrotation Yrotation
									JOINT LeftHandIndex2
									{
										OFFSET	 0.000000	 0.047237	 0.000000
										CHANNELS 3 Zrotation Xrotation Yrotation
										JOINT LeftHandIndex3
										{
											OFFSET	-0.004284	 0.038165	 0.000551
											CHANNELS 3 Zrotation Xrotation Yrotation
											End Site
											{
												OFFSET	-0.004284	 0.038165	 0.000551
											}
										}
									}
								}
							}
						}
					}
				}
				JOINT Neck
				{
					OFFSET	 0.000000	 0.176489	 0.000000
					CHANNELS 3 Zrotation Xrotation Yrotation
					JOINT Head
					{
						OFFSET	 0.000000	 0.077941	 0.001747
						CHANNELS 3 Zrotation Xrotation Yrotation
						End Site
						{
							OFFSET	 0.000000	 0.077941	 0.001747
						}
					}
				}
				JOINT RightShoulder
				{
					OFFSET	-0.080363	 0.159706	-0.000306
					CHANNELS 3 Zrotation Xrotation Yrotation
					JOINT RightArm
					{
						OFFSET	 0.000000	 0.164196	 0.000000
						CHANNELS 3 Zrotation Xrotation Yrotation
						JOINT RightForeArm
						{
							OFFSET	 0.000000	 0.365611	 0.000000
							CHANNELS 3 Zrotation Xrotation Yrotation
							JOINT RightHand
							{
								OFFSET	 0.000000	 0.360648	 0.000000
								CHANNELS 3 Zrotation Xrotation Yrotation
								JOINT RightHandIndex1
								{
									OFFSET	 0.000000	 0.069977	 0.000000
									CHANNELS 3 Zrotation Xrotation Yrotation
									JOINT RightHandIndex2
									{
										OFFSET	 0.000000	 0.052305	 0.000000
										CHANNELS 3 Zrotation Xrotation Yrotation
										JOINT RightHandIndex3
										{
											OFFSET	 0.009002	 0.042196	 0.000782
											CHANNELS 3 Zrotation Xrotation Yrotation
											End Site
											{
												OFFSET	 0.009002	 0.042196	 0.000782
											}
										}
									}
								}
							}
						}
					}
				}
			}
		}
	}
}
MOTION
Frames:    8
Frame Time: 0.03333334
-0.043699	 1.239231	-3.723745	-3.301359	-0.302751	-172.528700	 166.473300	 0.847023	 13.936590	 3.731551	-26.151570	 6.815554	 13.945860	 77.888200	-5.123287	 1.564345	 31.884090	-2.836405	 177.649700	 37.179900	-5.984496	-3.641709	-40.188290	 8.939686	 24.098500	 66.086930	-14.580510	-1.673010	 33.139290	 3.123908	-1.266214	 7.623922	-3.803474	 0.131218	 3.779594	-0.955111	-0.136927	-3.974297	-1.640134	-121.416600	 8.672464	 94.663930	 21.266500	 40.819650	-2.254628	 34.007800	-1.657758	 0.423148	 3.994910	-24.434980	 6.338804	 4.686795	 19.646100	-1.723627	-5.862507	 22.042880	 2.436905	 5.348748	 4.743821	-0.161757	-0.176113	-4.861001	 0.115585	-1.808660	-2.498299	-3.488386	 118.194500	-0.798664	-90.457660	 29.508700	 50.609200	-27.183720	-28.861930	-1.088014	-0.221436	 3.081464	-7.886208	-14.767990	-1.903737	 22.246060	 1.066258	 15.003980	 41.392620	-10.485750	-8.535075	 20.213650	-0.979339
-0.038476	 1.225524	-3.857938	-2.832427	-1.013999	-171.596400	 168.475500	-6.101636	 14.376810	 3.433728	-24.317010	 6.987634	 20.850150	 79.469870	-11.046660	 1.979642	 36.716980	-3.051795	 174.210800	 32.141850	-2.410395	-0.923236	-12.094520	 11.332510	 19.546410	 56.127890	-8.637573	-1.708173	 33.608970	 2.906151	-0.655445	 7.073763	-7.492294	 1.260772	 3.974263	-2.482895	-1.085871	-4.103034	 1.031659	-121.270100	 9.319715	 94.972470	 32.211980	 34.388230	-8.856265	 27.645700	-1.375443	 0.254554	 3.221892	-37.223730	-1.818465	 4.791705	 19.901400	-1.775607	-5.861946	 22.405310	 2.477100	 5.369950	 5.242337	-0.152937	-0.166639	-4.924656	 0.219151	-1.566170	-2.752622	-2.512420	 118.142100	-1.213926	-90.266030	 32.776470	 50.569760	-27.834510	-24.180940	-0.923353	-0.139215	-3.412358	-14.636780	-25.796470	-1.650659	 18.707570	 0.950671	 14.326580	 37.920320	-9.305680	-8.525886	 16.830850	-0.761895
-0.028734	 1.198362	-3.998924	-2.251959	-1.148446	-171.153800	 170.473700	-12.134260	 14.126240	 3.752275	-26.277150	 5.437448	 16.778250	 80.831670	-5.891180	 2.934002	 45.902400	-3.647928	 176.921300	 39.587240	-5.249743	-1.603486	-20.412330	 10.153610	 23.543620	 62.458030	-10.415450	-1.815347	 34.859610	 2.961575	 0.016092	 6.714342	-11.307330	 2.462542	 3.690429	-3.992198	-2.063406	-3.974573	 4.035656	-121.125500	 9.515906	 95.055580	 32.041200	 32.855180	-10.226540	 32.111930	-1.575714	 0.369619	-7.087324	-52.395160	-9.993917	 5.000514	 20.321440	-1.875110	-5.861648	 23.130440	 2.557831	 5.411674	 6.227269	-0.136039	-0.146855	-5.050442	 0.280789	-1.396383	-2.861712	-1.194771	 118.307000	-1.578535	-90.102400	 35.595750	 49.694110	-27.493290	-24.128320	-0.921468	-0.138356	-10.322680	-22.424170	-40.275990	-1.459165	 13.734290	 0.874402	 13.587990	 33.181740	-7.858641	-8.491083	 12.081950	-0.461139
-0.018719	 1.184843	-4.101176	-0.853869	-0.386895	-169.451300	 175.983400	-23.312760	 14.411140	 2.524678	-18.383420	 2.901579	 4.208020	 64.929340	 8.013453	 5.652341	 62.296320	-5.011691	 179.771600	 37.835580	-8.070374	-1.563536	-19.944340	 10.700500	 14.555780	 54.907900	-8.209726	-1.828088	 35.005910	 2.968301	 1.395453	 6.497803	-15.475170	 3.708018	 2.845563	-5.534426	-2.871620	-3.220135	 6.471289	-121.038000	 9.254841	 94.916010	 33.353720	 32.009700	-11.313810	 29.956870	-1.480157	 0.312183	-22.913080	-60.187730	-23.652570	 5.063513	 20.645150	-1.918114	-5.862675	 23.960740	 2.650819	 5.455541	 7.268018	-0.118938	-0.118061	-5.154956	 0.290381	-1.547223	-2.051035	-0.092880	 118.741200	-2.169623	-89.837170	 35.839110	 48.848700	-26.006030	-19.018770	-0.734676	-0.064528	-25.042470	-27.006170	-51.903020	-1.512588	 10.059780	 0.896844	 13.166730	 29.781410	-6.910577	-8.452408	 8.784633	-0.253340
-0.011620	 1.197113	-4.221716	 0.278615	 0.761379	-169.361800	 174.630000	-14.233600	 11.316540	 5.945290	-38.005870	 5.431683	 4.526778	 61.962130	 5.988415	 6.279517	 64.981490	-5.223029	-174.941900	 34.609210	-12.290550	-2.389780	-29.010260	 9.233408	 6.991199	 57.566060	-5.534813	-1.748356	 34.082070	 2.926690	 2.281736	 6.829042	-16.373120	 4.162591	 2.115788	-5.884195	-3.338884	-2.480008	 8.391593	-120.874800	 8.758600	 94.654010	 24.369260	 36.782450	-5.860794	 35.059330	-1.702587	 0.453950	-38.224510	-62.684400	-34.316450	 5.037466	 21.343620	-1.952248	-5.865368	 24.834830	 2.749394	 5.502379	 8.384595	-0.101444	-0.073778	-5.148060	 0.203884	-1.731924	-1.479679	 0.361110	 119.163400	-2.170495	-89.842940	 35.959770	 49.150270	-26.432900	-25.435880	-0.968192	-0.159947	-29.486520	-29.931070	-56.446720	-1.732656	 10.327010	 0.988819	 13.204340	 30.113550	-7.000380	-8.453587	 8.871991	-0.258849
-0.007058	 1.211555	-4.332057	 0.923303	 1.735364	-171.133300	 173.404300	-4.787722	 8.186519	 10.152750	-53.059140	 10.185700	 6.468497	 65.239200	 2.321258	 4.017953	 53.836700	-3.694099	-171.181400	 30.387150	-14.456920	-2.866268	-33.624670	 6.111235	 0.021027	 62.986940	 1.053742	-1.645045	 32.855560	 2.874495	 2.489822	 7.516493	-15.188630	 4.497704	 1.875951	-5.934458	-3.804085	-2.141091	 10.117210	-120.617100	 8.286833	 94.398600	 16.898690	 40.477540	-1.948703	 36.133110	-1.747681	 0.486321	-47.055970	-62.031210	-39.192900	 5.017722	 22.413690	-2.010972	-5.869930	 25.738910	 2.852150	 5.552899	 9.594320	-0.083474	-0.019615	-5.067520	 0.066175	-1.792529	-1.520386	 0.407409	 119.465200	-1.613679	-90.109980	 30.448650	 50.753890	-23.681130	-27.828420	-1.052372	-0.202194	-34.330440	-31.918460	-57.263260	-1.979322	 12.932110	 1.109139	 13.510430	 32.603230	-7.692610	-8.477314	 10.788020	-0.379595
-0.001730	 1.230051	-4.476052	 1.610065	 2.776277	-173.043800	 173.148900	 7.052418	 5.532993	 18.134060	-66.932640	 17.935190	 4.596039	 65.346190	 2.762860	 2.521267	 41.886990	-3.035652	-168.375400	 22.653830	-15.303050	-3.021118	-35.027130	 3.205752	-10.671010	 67.841960	 10.711800	-1.537440	 31.542560	 2.822272	 2.664583	 8.270472	-13.439960	 4.622213	 1.716608	-5.620467	-4.134686	-1.826773	 11.633580	-120.343800	 7.780602	 94.127910	 8.687810	 44.044180	 3.120777	 33.071660	-1.617357	 0.396400	-46.294410	-59.594280	-38.959370	 4.997738	 23.559160	-2.073905	-5.876865	 26.706660	 2.963125	 5.606765	 10.889300	-0.065366	 0.038569	-4.981452	-0.081296	-1.857438	-1.555836	 0.373963	 119.791100	-1.019254	-90.398960	 18.596510	 52.744590	-15.804000	-26.775740	-1.015350	-0.183125	-36.426300	-33.377060	-54.989120	-2.252905	 15.720580	 1.252426	 13.889010	 35.264900	-8.474553	-8.498313	 12.839240	-0.508896
 0.001551	 1.241698	-4.583649	 2.117928	 3.572863	-174.698400	 173.932000	 16.337750	 3.320996	 25.551680	-72.917820	 24.924030	 1.065633	 61.432270	 5.708119	 1.571912	 31.977050	-2.840045	-167.163900	 15.570820	-15.384500	-2.850189	-33.476310	 1.077186	-20.060640	 69.485210	 19.221020	-1.458398	 30.554960	 2.785353	 2.690678	 8.876938	-11.819180	 4.666059	 1.971047	-5.358041	-4.331565	-1.762075	 12.695130	-120.120900	 7.324188	 93.888380	 2.257855	 46.356850	 7.132226	 30.543940	-1.506317	 0.327454	-41.951240	-55.817670	-34.819020	 4.983882	 24.568030	-2.127080	-5.884823	 27.563820	 3.062333	 5.653643	 12.019680	-0.050509	 0.087433	-4.908134	-0.209958	-1.925755	-1.595122	 0.284822	 120.051700	-0.500233	-90.653880	 8.856632	 53.171890	-9.345400	-26.334510	-1.000013	-0.175381	-36.220910	-33.879070	-50.832590	-2.493971	 18.048810	 1.385402	 14.251280	 37.490040	-9.167167	-8.512474	 14.573030	-0.618460
